<?xml version="1.0" encoding="UTF-8"?>
<!DOCTYPE svg PUBLIC "-//W3C//DTD SVG 1.1//EN" "http://www.w3.org/Graphics/SVG/1.1/DTD/svg11.dtd">
<svg xmlns="http://www.w3.org/2000/svg" version="1.1" width="1024px" height="1024px" style="shape-rendering:geometricPrecision; text-rendering:geometricPrecision; image-rendering:optimizeQuality; fill-rule:evenodd; clip-rule:evenodd" xmlns:xlink="http://www.w3.org/1999/xlink">
<g><path style="opacity:0.99" fill="#45413c" d="M 590.5,938.5 C 589.07,938.579 587.736,938.246 586.5,937.5C 584.572,939.578 582.405,940.245 580,939.5C 579.683,941.301 579.016,941.634 578,940.5C 572.419,944.565 566.419,947.898 560,950.5C 556.947,950.131 554.113,951.131 551.5,953.5C 550.914,953.291 550.414,952.957 550,952.5C 549.5,953.667 548.667,954.5 547.5,955C 534.732,959.525 521.398,963.692 507.5,967.5C 506.158,966.098 505.324,966.431 505,968.5C 504.667,968.167 504.333,967.833 504,967.5C 496.6,969.329 489.267,971.329 482,973.5C 481.586,973.043 481.086,972.709 480.5,972.5C 475.947,973.674 471.447,974.674 467,975.5C 465.732,975.384 464.398,975.051 463,974.5C 461.559,975.26 460.059,975.926 458.5,976.5C 453.526,977.047 448.693,977.047 444,976.5C 441,977.167 438,977.833 435,978.5C 428.015,977.237 421.015,977.237 414,978.5C 410.333,977.833 406.667,977.167 403,976.5C 401.333,976.833 399.667,977.167 398,977.5C 395.396,976.006 392.729,975.673 390,976.5C 388.739,976.241 387.739,975.574 387,974.5C 382.647,975.131 378.481,975.131 374.5,974.5C 362.496,970.937 350.496,967.937 338.5,965.5C 337.158,966.902 336.324,966.569 336,964.5C 333.26,964.761 330.594,964.761 328,964.5C 327.055,964.095 326.388,963.428 326,962.5C 323.845,963.683 321.845,963.35 320,961.5C 317.333,961.5 314.667,961.5 312,961.5C 308.613,960.095 305.28,959.095 302,958.5C 300.333,958.833 298.667,959.167 297,959.5C 296,958.833 295,958.167 294,957.5C 278.692,956.41 263.025,956.41 247,957.5C 244.327,955.608 241.66,955.275 239,956.5C 234.601,955.852 230.434,954.519 226.5,952.5C 223.299,951.92 219.965,951.92 216.5,952.5C 216.53,951.503 216.03,950.836 215,950.5C 197.078,944.293 180.911,935.126 166.5,923C 149.102,907.615 133.936,890.448 121,871.5C 105.817,845.416 100.317,817.416 104.5,787.5C 103.789,777.16 102.956,766.827 102,756.5C 98.1243,734.664 93.4576,712.997 88,691.5C 76.7545,618.639 87.0878,548.972 119,482.5C 172.986,374.181 256.486,298.348 369.5,255C 398.768,245.013 428.768,238.347 459.5,235C 420.681,189.884 402.514,137.384 405,77.5C 407.803,65.3601 414.97,56.8601 426.5,52C 509.879,21.9495 584.879,35.9495 651.5,94C 709.407,142.83 736.074,205.163 731.5,281C 732.908,281.315 734.241,280.982 735.5,280C 768.273,251.27 805.607,230.27 847.5,217C 862.348,212.285 877.348,211.619 892.5,215C 913.292,223.349 924.792,238.849 927,261.5C 930.389,282.902 922.222,297.735 902.5,306C 867.351,310.287 833.351,318.954 800.5,332C 795.702,333.589 791.368,335.923 787.5,339C 796.281,353.007 802.115,368.174 805,384.5C 805.815,405.828 806.482,427.162 807,448.5C 808.126,458.921 809.792,469.254 812,479.5C 835.34,559.485 830.674,637.818 798,714.5C 754.574,813.508 684.741,887.674 588.5,937C 589.416,937.278 590.082,937.778 590.5,938.5 Z"/></g>
<g><path style="opacity:1" fill="#9be95f" d="M 590.5,129.5 C 550.639,110.534 508.973,105.701 465.5,115C 453.435,117.744 441.768,121.578 430.5,126.5C 427.348,111.036 426.181,95.3691 427,79.5C 430.611,73.8329 435.778,70.3329 442.5,69C 511.691,47.1804 574.357,59.1804 630.5,105C 655.099,124.589 674.933,148.089 690,175.5C 703.586,201.175 709.919,228.508 709,257.5C 688.844,196.806 649.344,154.14 590.5,129.5 Z"/></g>
<g><path style="opacity:1" fill="#6cd527" d="M 590.5,129.5 C 581.422,131.324 578.255,136.657 581,145.5C 587.593,150.55 594.76,154.717 602.5,158C 650.928,186.79 681.595,228.79 694.5,284C 694.167,284.833 693.833,285.667 693.5,286.5C 681.601,278.922 668.601,274.422 654.5,273C 645.014,272.234 635.514,271.734 626,271.5C 552.608,281.848 495.941,256.181 456,194.5C 443.292,173.417 434.792,150.75 430.5,126.5C 441.768,121.578 453.435,117.744 465.5,115C 508.973,105.701 550.639,110.534 590.5,129.5 Z"/></g>
<g><path style="opacity:1" fill="#eed3a7" d="M 904.5,277.5 C 891.157,267.18 876.157,264.014 859.5,268C 810.064,280.206 767.398,304.039 731.5,339.5C 729.284,338.797 727.451,337.464 726,335.5C 723.801,331.936 722.301,328.102 721.5,324C 759.511,281.811 805.844,252.478 860.5,236C 888.836,229.664 904.17,240.997 906.5,270C 906.332,272.665 905.665,275.165 904.5,277.5 Z"/></g>
<g><path style="opacity:1" fill="#fef38b" d="M 788.5,474.5 C 783.661,462.493 777.495,451.159 770,440.5C 757.53,427.029 744.696,413.862 731.5,401C 702.99,377.535 670.323,368.369 633.5,373.5C 615.333,372.717 597.333,370.55 579.5,367C 501.131,343.613 424.465,348.28 349.5,381C 241.197,430.638 164.031,510.471 118,620.5C 114.268,630.363 110.934,640.363 108,650.5C 106.805,654.751 106.305,659.085 106.5,663.5C 101.689,608.368 110.522,555.368 133,504.5C 187.466,386.365 276.632,307.531 400.5,268C 427.616,260.031 455.283,256.364 483.5,257C 510.412,279.279 541.412,291.279 576.5,293C 603.861,293.072 631.194,293.739 658.5,295C 683.958,299.46 699.125,314.293 704,339.5C 711.627,356.73 724.794,364.23 743.5,362C 750.466,358.516 757.132,354.516 763.5,350C 764.759,349.018 766.092,348.685 767.5,349C 775.884,361.276 781.384,374.776 784,389.5C 784.333,407.5 784.667,425.5 785,443.5C 785.514,453.916 786.681,464.249 788.5,474.5 Z"/></g>
<g><path style="opacity:1" fill="#ddba7d" d="M 904.5,277.5 C 902.724,281.398 899.724,283.898 895.5,285C 838.574,291.195 786.241,309.861 738.5,341C 735.788,341.826 733.455,341.326 731.5,339.5C 767.398,304.039 810.064,280.206 859.5,268C 876.157,264.014 891.157,267.18 904.5,277.5 Z"/></g>
<g><path style="opacity:1" fill="#fee400" d="M 788.5,474.5 C 790.501,483.173 792.501,491.84 794.5,500.5C 795.252,515.813 795.752,531.147 796,546.5C 798.504,565.522 801.004,584.522 803.5,603.5C 797.239,661.117 778.739,714.45 748,763.5C 691,851.449 612.5,911.616 512.5,944C 473.2,955.3 433.2,958.967 392.5,955C 363.154,949.464 333.821,943.798 304.5,938C 281.849,936.245 259.182,934.911 236.5,934C 215.848,929.507 197.515,920.507 181.5,907C 167.564,894.069 154.731,880.236 143,865.5C 133.579,851.573 127.913,836.24 126,819.5C 125.667,800.833 125.333,782.167 125,763.5C 123.8,752.768 122.133,742.101 120,731.5C 113.131,709.321 108.631,686.654 106.5,663.5C 106.305,659.085 106.805,654.751 108,650.5C 110.934,640.363 114.268,630.363 118,620.5C 164.031,510.471 241.197,430.638 349.5,381C 424.465,348.28 501.131,343.613 579.5,367C 597.333,370.55 615.333,372.717 633.5,373.5C 670.323,368.369 702.99,377.535 731.5,401C 744.696,413.862 757.53,427.029 770,440.5C 777.495,451.159 783.661,462.493 788.5,474.5 Z"/></g>
<g><path style="opacity:1" fill="#f8ed88" d="M 794.5,500.5 C 799.761,516.982 802.928,533.982 804,551.5C 804.829,569.005 804.662,586.338 803.5,603.5C 801.004,584.522 798.504,565.522 796,546.5C 795.752,531.147 795.252,515.813 794.5,500.5 Z"/></g>
<g><path style="opacity:0.152" fill="#43423b" d="M 590.5,938.5 C 624.477,940.122 658.144,944.289 691.5,951C 701.658,952.941 711.324,956.275 720.5,961C 727.167,965.667 727.167,970.333 720.5,975C 715.156,978.115 709.489,980.448 703.5,982C 670.921,989.698 637.921,994.698 604.5,997C 505.833,1004.33 407.166,1004.33 308.5,997C 274.75,994.702 241.417,989.702 208.5,982C 200.746,980.2 193.913,976.7 188,971.5C 186.071,967.149 187.238,963.649 191.5,961C 199.339,956.665 207.672,953.832 216.5,952.5C 219.965,951.92 223.299,951.92 226.5,952.5C 230.434,954.519 234.601,955.852 239,956.5C 241.66,955.275 244.327,955.608 247,957.5C 263.025,956.41 278.692,956.41 294,957.5C 295,958.167 296,958.833 297,959.5C 298.667,959.167 300.333,958.833 302,958.5C 305.28,959.095 308.613,960.095 312,961.5C 314.667,961.5 317.333,961.5 320,961.5C 321.845,963.35 323.845,963.683 326,962.5C 326.388,963.428 327.055,964.095 328,964.5C 330.594,964.761 333.26,964.761 336,964.5C 336.324,966.569 337.158,966.902 338.5,965.5C 350.496,967.937 362.496,970.937 374.5,974.5C 378.481,975.131 382.647,975.131 387,974.5C 387.739,975.574 388.739,976.241 390,976.5C 392.729,975.673 395.396,976.006 398,977.5C 399.667,977.167 401.333,976.833 403,976.5C 406.667,977.167 410.333,977.833 414,978.5C 421.015,977.237 428.015,977.237 435,978.5C 438,977.833 441,977.167 444,976.5C 448.693,977.047 453.526,977.047 458.5,976.5C 460.059,975.926 461.559,975.26 463,974.5C 464.398,975.051 465.732,975.384 467,975.5C 471.447,974.674 475.947,973.674 480.5,972.5C 481.086,972.709 481.586,973.043 482,973.5C 489.267,971.329 496.6,969.329 504,967.5C 504.333,967.833 504.667,968.167 505,968.5C 505.324,966.431 506.158,966.098 507.5,967.5C 521.398,963.692 534.732,959.525 547.5,955C 548.667,954.5 549.5,953.667 550,952.5C 550.414,952.957 550.914,953.291 551.5,953.5C 554.113,951.131 556.947,950.131 560,950.5C 566.419,947.898 572.419,944.565 578,940.5C 579.016,941.634 579.683,941.301 580,939.5C 582.405,940.245 584.572,939.578 586.5,937.5C 587.736,938.246 589.07,938.579 590.5,938.5 Z"/></g>
</svg>
