<?xml version="1.0" encoding="UTF-8"?>
<!DOCTYPE svg PUBLIC "-//W3C//DTD SVG 1.1//EN" "http://www.w3.org/Graphics/SVG/1.1/DTD/svg11.dtd">
<svg xmlns="http://www.w3.org/2000/svg" version="1.1" width="744px" height="1052px" style="shape-rendering:geometricPrecision; text-rendering:geometricPrecision; image-rendering:optimizeQuality; fill-rule:evenodd; clip-rule:evenodd" xmlns:xlink="http://www.w3.org/1999/xlink">
<g><path style="opacity:0.968" fill="#026c01" d="M 90.5,272.5 C 88.2243,274.331 86.391,276.664 85,279.5C 46.3058,354.249 39.3058,431.916 64,512.5C 99.4461,617.281 167.279,693.114 267.5,740C 342.996,774.536 421.33,782.87 502.5,765C 584.631,745.06 648.131,699.56 693,628.5C 693.483,627.552 693.649,626.552 693.5,625.5C 697.441,627.14 701.108,629.306 704.5,632C 652.857,714.202 578.857,763.535 482.5,780C 353.615,796.259 242.282,759.925 148.5,671C 78.8677,601.704 42.201,517.704 38.5,419C 38.6087,364.557 52.2753,313.89 79.5,267C 83.3604,268.263 87.0271,270.097 90.5,272.5 Z"/></g>
<g><path style="opacity:1" fill="#99fb99" d="M 90.5,272.5 C 92.8816,273.351 94.8816,274.684 96.5,276.5C 70.5992,319.753 57.5992,366.753 57.5,417.5C 59.5425,508.175 91.7092,586.175 154,651.5C 249.063,746.072 362.896,781.905 495.5,759C 568.168,742.775 627.001,705.275 672,646.5C 677.69,638.446 682.856,630.113 687.5,621.5C 689.795,622.475 691.795,623.808 693.5,625.5C 693.649,626.552 693.483,627.552 693,628.5C 648.131,699.56 584.631,745.06 502.5,765C 421.33,782.87 342.996,774.536 267.5,740C 167.279,693.114 99.4461,617.281 64,512.5C 39.3058,431.916 46.3058,354.249 85,279.5C 86.391,276.664 88.2243,274.331 90.5,272.5 Z"/></g>
<g><path style="opacity:1" fill="#d8fed8" d="M 96.5,276.5 C 110.168,283.665 123.501,291.331 136.5,299.5C 135.624,299.369 134.957,299.702 134.5,300.5C 99.6549,363.762 92.4882,430.096 113,499.5C 145.572,597.742 210.072,665.909 306.5,704C 384.19,732.725 461.19,731.058 537.5,699C 583.439,677.059 619.939,644.559 647,601.5C 647.483,600.552 647.649,599.552 647.5,598.5C 661.132,605.649 674.466,613.316 687.5,621.5C 682.856,630.113 677.69,638.446 672,646.5C 627.001,705.275 568.168,742.775 495.5,759C 362.896,781.905 249.063,746.072 154,651.5C 91.7092,586.175 59.5425,508.175 57.5,417.5C 57.5992,366.753 70.5992,319.753 96.5,276.5 Z"/></g>
<g><path style="opacity:1" fill="#fe5352" d="M 136.5,299.5 C 144.782,303.803 152.782,308.47 160.5,313.5C 157.192,312.974 155.026,314.307 154,317.5C 124.987,372.955 118.654,430.955 135,491.5C 161.371,574.871 213.871,635.705 292.5,674C 367.681,708.447 443.681,710.447 520.5,680C 564.288,660.877 598.788,631.044 624,590.5C 624.678,588.402 624.511,586.402 623.5,584.5C 631.836,588.665 639.836,593.332 647.5,598.5C 647.649,599.552 647.483,600.552 647,601.5C 619.939,644.559 583.439,677.059 537.5,699C 461.19,731.058 384.19,732.725 306.5,704C 210.072,665.909 145.572,597.742 113,499.5C 92.4882,430.096 99.6549,363.762 134.5,300.5C 134.957,299.702 135.624,299.369 136.5,299.5 Z"/></g>
<g><path style="opacity:1" fill="#fe3030" d="M 160.5,313.5 C 161.71,313.932 162.71,314.599 163.5,315.5C 164.344,317.759 166.011,318.759 168.5,318.5C 171.331,319.079 173.664,320.412 175.5,322.5C 176.344,324.759 178.011,325.759 180.5,325.5C 188.836,329.665 196.836,334.332 204.5,339.5C 205.344,341.759 207.011,342.759 209.5,342.5C 212.331,343.079 214.664,344.412 216.5,346.5C 217.344,348.759 219.011,349.759 221.5,349.5C 224.331,350.079 226.664,351.412 228.5,353.5C 229.344,355.759 231.011,356.759 233.5,356.5C 241.836,360.665 249.836,365.332 257.5,370.5C 258.344,372.759 260.011,373.759 262.5,373.5C 269.332,376.412 275.666,380.079 281.5,384.5C 282.344,386.759 284.011,387.759 286.5,387.5C 289.76,388.774 292.76,390.44 295.5,392.5C 295.973,393.906 296.973,394.573 298.5,394.5C 302.836,396.332 306.836,398.665 310.5,401.5C 311.344,403.759 313.011,404.759 315.5,404.5C 318.331,405.079 320.664,406.412 322.5,408.5C 323.344,410.759 325.011,411.759 327.5,411.5C 330.331,412.079 332.664,413.412 334.5,415.5C 335.344,417.759 337.011,418.759 339.5,418.5C 342.76,419.774 345.76,421.44 348.5,423.5C 348.973,424.906 349.973,425.573 351.5,425.5C 359.836,429.665 367.836,434.332 375.5,439.5C 376.344,441.759 378.011,442.759 380.5,442.5C 383.331,443.079 385.664,444.412 387.5,446.5C 388.344,448.759 390.011,449.759 392.5,449.5C 395.76,450.774 398.76,452.44 401.5,454.5C 401.973,455.906 402.973,456.573 404.5,456.5C 412.836,460.665 420.836,465.332 428.5,470.5C 429.344,472.759 431.011,473.759 433.5,473.5C 436.331,474.079 438.664,475.412 440.5,477.5C 441.344,479.759 443.011,480.759 445.5,480.5C 448.331,481.079 450.664,482.412 452.5,484.5C 453.344,486.759 455.011,487.759 457.5,487.5C 460.331,488.079 462.664,489.412 464.5,491.5C 465.344,493.759 467.011,494.759 469.5,494.5C 473.836,496.332 477.836,498.665 481.5,501.5C 482.344,503.759 484.011,504.759 486.5,504.5C 489.331,505.079 491.664,506.412 493.5,508.5C 494.344,510.759 496.011,511.759 498.5,511.5C 501.331,512.079 503.664,513.412 505.5,515.5C 506.344,517.759 508.011,518.759 510.5,518.5C 522.836,524.999 534.836,531.999 546.5,539.5C 547.344,541.759 549.011,542.759 551.5,542.5C 554.331,543.079 556.664,544.412 558.5,546.5C 559.344,548.759 561.011,549.759 563.5,549.5C 566.76,550.774 569.76,552.44 572.5,554.5C 572.973,555.906 573.973,556.573 575.5,556.5C 583.836,560.665 591.836,565.332 599.5,570.5C 600.344,572.759 602.011,573.759 604.5,573.5C 607.331,574.079 609.664,575.412 611.5,577.5C 612.344,579.759 614.011,580.759 616.5,580.5C 619.331,581.079 621.664,582.412 623.5,584.5C 624.511,586.402 624.678,588.402 624,590.5C 598.788,631.044 564.288,660.877 520.5,680C 443.681,710.447 367.681,708.447 292.5,674C 213.871,635.705 161.371,574.871 135,491.5C 118.654,430.955 124.987,372.955 154,317.5C 155.026,314.307 157.192,312.974 160.5,313.5 Z"/></g>
<g><path style="opacity:1" fill="#e0825f" d="M 163.5,315.5 C 165.674,315.75 167.341,316.75 168.5,318.5C 166.011,318.759 164.344,317.759 163.5,315.5 Z"/></g>
<g><path style="opacity:1" fill="#df7c5f" d="M 175.5,322.5 C 177.674,322.75 179.341,323.75 180.5,325.5C 178.011,325.759 176.344,324.759 175.5,322.5 Z"/></g>
<g><path style="opacity:1" fill="#e07f5e" d="M 204.5,339.5 C 206.674,339.75 208.341,340.75 209.5,342.5C 207.011,342.759 205.344,341.759 204.5,339.5 Z"/></g>
<g><path style="opacity:1" fill="#de835c" d="M 216.5,346.5 C 218.674,346.75 220.341,347.75 221.5,349.5C 219.011,349.759 217.344,348.759 216.5,346.5 Z"/></g>
<g><path style="opacity:1" fill="#1e1a1a" d="M 176.5,351.5 C 182.308,350.652 186.142,352.985 188,358.5C 188.91,370.185 184.743,379.685 175.5,387C 168.493,391.405 163.327,389.905 160,382.5C 159.202,368.761 164.702,358.427 176.5,351.5 Z"/></g>
<g><path style="opacity:1" fill="#e3755c" d="M 228.5,353.5 C 230.674,353.75 232.341,354.75 233.5,356.5C 231.011,356.759 229.344,355.759 228.5,353.5 Z"/></g>
<g><path style="opacity:1" fill="#df7f5c" d="M 257.5,370.5 C 259.674,370.75 261.341,371.75 262.5,373.5C 260.011,373.759 258.344,372.759 257.5,370.5 Z"/></g>
<g><path style="opacity:1" fill="#e1795f" d="M 281.5,384.5 C 283.674,384.75 285.341,385.75 286.5,387.5C 284.011,387.759 282.344,386.759 281.5,384.5 Z"/></g>
<g><path style="opacity:0.016" fill="#c88f79" d="M 295.5,392.5 C 297.027,392.427 298.027,393.094 298.5,394.5C 296.973,394.573 295.973,393.906 295.5,392.5 Z"/></g>
<g><path style="opacity:1" fill="#e07f5e" d="M 310.5,401.5 C 312.674,401.75 314.341,402.75 315.5,404.5C 313.011,404.759 311.344,403.759 310.5,401.5 Z"/></g>
<g><path style="opacity:1" fill="#e28060" d="M 322.5,408.5 C 324.674,408.75 326.341,409.75 327.5,411.5C 325.011,411.759 323.344,410.759 322.5,408.5 Z"/></g>
<g><path style="opacity:1" fill="#1d1a1a" d="M 264.5,411.5 C 268.689,411.182 271.855,412.848 274,416.5C 275.23,429.543 270.064,439.043 258.5,445C 255.833,445.667 253.167,445.667 250.5,445C 249.299,444.097 248.465,442.931 248,441.5C 246.47,427.554 251.97,417.554 264.5,411.5 Z"/></g>
<g><path style="opacity:1" fill="#e17a5f" d="M 334.5,415.5 C 336.674,415.75 338.341,416.75 339.5,418.5C 337.011,418.759 335.344,417.759 334.5,415.5 Z"/></g>
<g><path style="opacity:0.016" fill="#c88f79" d="M 348.5,423.5 C 350.027,423.427 351.027,424.094 351.5,425.5C 349.973,425.573 348.973,424.906 348.5,423.5 Z"/></g>
<g><path style="opacity:1" fill="#e0825e" d="M 375.5,439.5 C 377.674,439.75 379.341,440.75 380.5,442.5C 378.011,442.759 376.344,441.759 375.5,439.5 Z"/></g>
<g><path style="opacity:1" fill="#e17a5f" d="M 387.5,446.5 C 389.674,446.75 391.341,447.75 392.5,449.5C 390.011,449.759 388.344,448.759 387.5,446.5 Z"/></g>
<g><path style="opacity:0.016" fill="#c98f79" d="M 401.5,454.5 C 403.027,454.427 404.027,455.094 404.5,456.5C 402.973,456.573 401.973,455.906 401.5,454.5 Z"/></g>
<g><path style="opacity:1" fill="#1d1a1a" d="M 178.5,465.5 C 183.126,464.7 186.96,466.034 190,469.5C 193.34,484.656 188.507,496.489 175.5,505C 168.657,508.231 163.823,506.398 161,499.5C 159.7,484.433 165.533,473.099 178.5,465.5 Z"/></g>
<g><path style="opacity:1" fill="#e0825e" d="M 428.5,470.5 C 430.674,470.75 432.341,471.75 433.5,473.5C 431.011,473.759 429.344,472.759 428.5,470.5 Z"/></g>
<g><path style="opacity:1" fill="#e2795f" d="M 440.5,477.5 C 442.674,477.75 444.341,478.75 445.5,480.5C 443.011,480.759 441.344,479.759 440.5,477.5 Z"/></g>
<g><path style="opacity:1" fill="#eb7a60" d="M 452.5,484.5 C 454.674,484.75 456.341,485.75 457.5,487.5C 455.011,487.759 453.344,486.759 452.5,484.5 Z"/></g>
<g><path style="opacity:1" fill="#1e1a1a" d="M 288.5,487.5 C 299.053,487.545 303.22,492.878 301,503.5C 298.25,512.86 292.75,520.027 284.5,525C 277.072,528.367 272.239,526.2 270,518.5C 270.023,504.447 276.19,494.114 288.5,487.5 Z"/></g>
<g><path style="opacity:1" fill="#e7795b" d="M 464.5,491.5 C 466.434,492.11 468.101,493.11 469.5,494.5C 467.011,494.759 465.344,493.759 464.5,491.5 Z"/></g>
<g><path style="opacity:1" fill="#e07f5d" d="M 481.5,501.5 C 483.674,501.75 485.341,502.75 486.5,504.5C 484.011,504.759 482.344,503.759 481.5,501.5 Z"/></g>
<g><path style="opacity:1" fill="#e0825e" d="M 493.5,508.5 C 495.674,508.75 497.341,509.75 498.5,511.5C 496.011,511.759 494.344,510.759 493.5,508.5 Z"/></g>
<g><path style="opacity:1" fill="#1d1a1a" d="M 464.5,511.5 C 476.076,512.604 480.243,518.937 477,530.5C 474.707,542.266 468.207,550.766 457.5,556C 450.135,558.288 445.302,555.788 443,548.5C 442.462,531.563 449.629,519.23 464.5,511.5 Z"/></g>
<g><path style="opacity:1" fill="#e1795e" d="M 505.5,515.5 C 507.674,515.75 509.341,516.75 510.5,518.5C 508.011,518.759 506.344,517.759 505.5,515.5 Z"/></g>
<g><path style="opacity:1" fill="#1c1a1a" d="M 371.5,526.5 C 383.868,526.159 388.368,532.159 385,544.5C 382.745,554.185 377.245,561.351 368.5,566C 362.521,567.928 358.354,566.095 356,560.5C 354.413,546.012 359.58,534.679 371.5,526.5 Z"/></g>
<g><path style="opacity:1" fill="#de825c" d="M 546.5,539.5 C 548.674,539.75 550.341,540.75 551.5,542.5C 549.011,542.759 547.344,541.759 546.5,539.5 Z"/></g>
<g><path style="opacity:1" fill="#e17b5f" d="M 558.5,546.5 C 560.674,546.75 562.341,547.75 563.5,549.5C 561.011,549.759 559.344,548.759 558.5,546.5 Z"/></g>
<g><path style="opacity:0.008" fill="#e29078" d="M 572.5,554.5 C 574.027,554.427 575.027,555.094 575.5,556.5C 573.973,556.573 572.973,555.906 572.5,554.5 Z"/></g>
<g><path style="opacity:1" fill="#e0825e" d="M 599.5,570.5 C 601.674,570.75 603.341,571.75 604.5,573.5C 602.011,573.759 600.344,572.759 599.5,570.5 Z"/></g>
<g><path style="opacity:1" fill="#e1795f" d="M 611.5,577.5 C 613.674,577.75 615.341,578.75 616.5,580.5C 614.011,580.759 612.344,579.759 611.5,577.5 Z"/></g>
<g><path style="opacity:1" fill="#1d1a1a" d="M 532.5,598.5 C 538.44,597.069 542.607,599.069 545,604.5C 546.691,618.946 541.524,630.113 529.5,638C 521.769,641.29 516.935,638.79 515,630.5C 514.809,616.55 520.642,605.884 532.5,598.5 Z"/></g>
<g><path style="opacity:1" fill="#1c1a1a" d="M 306.5,614.5 C 312.816,613.573 317.316,615.906 320,621.5C 321.982,638.377 315.482,650.543 300.5,658C 293.756,659.714 289.59,657.214 288,650.5C 286.905,634.763 293.072,622.763 306.5,614.5 Z"/></g>
<g><path style="opacity:1" fill="#1c1a1a" d="M 442.5,619.5 C 451.358,618.693 455.691,622.693 455.5,631.5C 454.806,646.066 447.806,656.233 434.5,662C 428.653,663.328 424.82,661.161 423,655.5C 421.403,639.022 427.903,627.022 442.5,619.5 Z"/></g>
</svg>
